# xmcd CD database file
#
# Track frame offsets:
#	150
#	11873
#	33723
#	48567
#	56460
#	70547
#	90905
#	107990
#	117222
#	131341
#	144640
#	158659
#	175585
#	197746
#	210919
#	225299
#	238937
#	256322
#	275837
#	294224
#
# Disc length: 4125 seconds
#
# Revision: 0
# Processed by: cddbd v1.4PL0 Copyright (c) Steve Scherf et al.
# Submitted via: CDex 1.51
#
DISCID=13101b14
DTITLE=Tracey Chapman And Hot Chocolate - Greatest Hits
DYEAR=1987
DGENRE=Blues
TTITLE0=Tracey Chapman - Talkin' Bout A Revolution
TTITLE1=Tracey Chapman - fast car
TTITLE2=Tracey Chapman - Across The Lines
TTITLE3=Tracey Chapman - Behind The wall
TTITLE4=Tracey Chapman - Baby Can I Hold You
TTITLE5=Tracey Chapman - Mountains Of Things
TTITLE6=Tracey Chapman - She's Got Her Ticket
TTITLE7=Tracey Chapman - Why?
TTITLE8=Tracey Chapman - For My Lover
TTITLE9=Tracey Chapman - If Not Now
TTITLE10=Tracey Chapman - For You
TTITLE11=Hot Chocolate - A Child's Prayer
TTITLE12=Hot Chocolate - Brother Louie
TTITLE13=Hot Chocolate - Cgeri Babe
TTITLE14=Hot Chocolate - Disco Queen
TTITLE15=Hot Chocolate - Don't Stop It Now
TTITLE16=Hot Chocolate - Emma
TTITLE17=Hot Chocolate - Rumours
TTITLE18=Hot Chocolate - You Sexy Thing
TTITLE19=Hot Chocolate - You'll Always Be A Friend
EXTD=YEAR: 1987
EXTT0=
EXTT1=
EXTT2=
EXTT3=
EXTT4=
EXTT5=
EXTT6=
EXTT7=
EXTT8=
EXTT9=
EXTT10=
EXTT11=
EXTT12=
EXTT13=
EXTT14=
EXTT15=
EXTT16=
EXTT17=
EXTT18=
EXTT19=
PLAYORDER=
